<svg width="300" height="150" viewBox="0 0 300 150" fill="none" xmlns="http://www.w3.org/2000/svg">
<ellipse cx="150" cy="75" rx="150" ry="75" fill="#FBDA0C"/>
<path d="M54.4531 40.9688V108H42.0312V40.9688H54.4531ZM94.8125 97.2188C108.719 97.2188 115.672 89.0312 115.672 72.6562C115.672 58.7188 108.719 51.75 94.8125 51.75H80.9844V97.2188H94.8125ZM68.5625 108V40.9688H94.8125C117 40.9688 128.094 51.5312 128.094 72.6562C128.094 96.2188 117 108 94.8125 108H68.5625ZM184.578 40.9688V51.6562H151.016V68.5312H182.984V79.6406H150.875V97.2188H185.234V108H138.688V40.9688H184.578ZM203.609 108H190.859L219.312 40.9688H232.672L261.734 108H248.375L240.734 89.7188H218.469L222.734 78.9375H236.234L225.688 53.7656L203.609 108Z" fill="#0057AD"/>
</svg>
